<svg width="24" height="24" viewBox="0 0 24 24" fill="none" xmlns="http://www.w3.org/2000/svg">
<g id="Frame 1000001507">
<path id="Vector" d="M18.4946 6.77677C18.3648 6.77677 18.2403 6.82815 18.1485 6.9196C18.0567 7.01106 18.0051 7.13509 18.0051 7.26443V8.43784C17.2488 7.15495 16.1 6.14701 14.727 5.56168C13.354 4.97635 11.8289 4.84439 10.3751 5.18513C8.92129 5.52588 7.61525 6.32142 6.64829 7.45522C5.68132 8.58902 5.10425 10.0015 5.00161 11.4857C4.99638 11.5498 5.00393 11.6142 5.02382 11.6754C5.0437 11.7366 5.07553 11.7932 5.11747 11.8421C5.15942 11.8909 5.21064 11.931 5.26821 11.9601C5.32578 11.9892 5.38854 12.0066 5.4529 12.0114C5.57637 12.0118 5.69543 11.9657 5.78621 11.8823C5.87699 11.799 5.9328 11.6845 5.94245 11.5619C6.04081 10.2604 6.56325 9.02665 7.43027 8.0482C8.29729 7.06975 9.46144 6.4002 10.7456 6.14143C12.0297 5.88266 13.3636 6.04883 14.5442 6.61465C15.7249 7.18048 16.6876 8.11499 17.2861 9.276H15.9857C15.8549 9.276 15.7294 9.32778 15.6369 9.41994C15.5443 9.51211 15.4923 9.63712 15.4923 9.76746C15.4923 9.89781 15.5443 10.0228 15.6369 10.115C15.7294 10.2071 15.8549 10.2589 15.9857 10.2589H18.4946C18.6245 10.2589 18.749 10.2075 18.8408 10.1161C18.9326 10.0246 18.9842 9.9006 18.9842 9.77127V7.26443C18.9842 7.13509 18.9326 7.01106 18.8408 6.9196C18.749 6.82815 18.6245 6.77677 18.4946 6.77677ZM18.4946 12.0038C18.4303 11.9986 18.3656 12.0061 18.3042 12.0259C18.2428 12.0457 18.1859 12.0774 18.1369 12.1192C18.0878 12.161 18.0475 12.212 18.0183 12.2694C17.9892 12.3267 17.9717 12.3893 17.9668 12.4534C17.8685 13.7548 17.346 14.9886 16.479 15.967C15.612 16.9455 14.4478 17.615 13.1637 17.8738C11.8795 18.1326 10.5457 17.9664 9.36504 17.4006C8.18441 16.8348 7.22164 15.9003 6.62321 14.7392H8.0077C8.13855 14.7392 8.26404 14.6875 8.35657 14.5953C8.44909 14.5031 8.50107 14.3781 8.50107 14.2478C8.50107 14.1174 8.44909 13.9924 8.35657 13.9003C8.26404 13.8081 8.13855 13.7563 8.0077 13.7563H5.4988C5.43451 13.7563 5.37085 13.7689 5.31146 13.7934C5.25206 13.8179 5.1981 13.8539 5.15264 13.8991C5.10718 13.9444 5.07112 13.9982 5.04652 14.0574C5.02192 14.1165 5.00925 14.1799 5.00925 14.244V16.7432C5.00925 16.8735 5.06123 16.9985 5.15376 17.0907C5.24628 17.1829 5.37177 17.2347 5.50262 17.2347C5.63347 17.2347 5.75896 17.1829 5.85149 17.0907C5.94401 16.9985 5.99599 16.8735 5.99599 16.7432V15.5622C6.75223 16.845 7.90102 17.853 9.27405 18.4383C10.6471 19.0237 12.1722 19.1556 13.626 18.8149C15.0798 18.4741 16.3858 17.6786 17.3528 16.5448C18.3197 15.411 18.8968 13.9985 18.9995 12.5143C19.0025 12.449 18.9924 12.3838 18.9697 12.3224C18.9469 12.2611 18.9121 12.205 18.8671 12.1574C18.8221 12.1097 18.768 12.0716 18.708 12.0452C18.6479 12.0188 18.5832 12.0048 18.5176 12.0038H18.4946Z" fill="#606266"/>
</g>
</svg>
